<mxfile host="app.diagrams.net" agent="Mozilla/5.0 (Windows NT 10.0; Win64; x64; rv:139.0) Gecko/20100101 Firefox/139.0" version="27.1.4">
  <diagram name="Page-1" id="EORl7KiP4Y9r3IjKcico">
    <mxGraphModel dx="992" dy="510" grid="1" gridSize="10" guides="1" tooltips="1" connect="1" arrows="1" fold="1" page="1" pageScale="1" pageWidth="850" pageHeight="1100" math="0" shadow="0">
      <root>
        <mxCell id="0" />
        <mxCell id="1" parent="0" />
        <mxCell id="KM8s7azPfyd2CxzV3lHb-3" value="" style="pointerEvents=1;verticalLabelPosition=bottom;shadow=0;dashed=0;align=center;html=1;verticalAlign=top;shape=mxgraph.electrical.signal_sources.source;aspect=fixed;points=[[0.5,0,0],[1,0.5,0],[0.5,1,0],[0,0.5,0]];elSignalType=dc1;direction=north;" vertex="1" parent="1">
          <mxGeometry x="170" y="350" width="60" height="60" as="geometry" />
        </mxCell>
        <mxCell id="KM8s7azPfyd2CxzV3lHb-4" value="" style="pointerEvents=1;verticalLabelPosition=bottom;shadow=0;dashed=0;align=center;html=1;verticalAlign=top;shape=mxgraph.electrical.signal_sources.source;aspect=fixed;points=[[0.5,0,0],[1,0.5,0],[0.5,1,0],[0,0.5,0]];elSignalType=dc1;direction=north;" vertex="1" parent="1">
          <mxGeometry x="570" y="350" width="60" height="60" as="geometry" />
        </mxCell>
        <mxCell id="KM8s7azPfyd2CxzV3lHb-5" value="" style="pointerEvents=1;verticalLabelPosition=bottom;shadow=0;dashed=0;align=center;html=1;verticalAlign=top;shape=mxgraph.electrical.resistors.resistor_1;direction=south;" vertex="1" parent="1">
          <mxGeometry x="190" y="190" width="20" height="70" as="geometry" />
        </mxCell>
        <mxCell id="KM8s7azPfyd2CxzV3lHb-6" value="" style="pointerEvents=1;verticalLabelPosition=bottom;shadow=0;dashed=0;align=center;html=1;verticalAlign=top;shape=mxgraph.electrical.resistors.resistor_1;direction=south;" vertex="1" parent="1">
          <mxGeometry x="590" y="190" width="20" height="70" as="geometry" />
        </mxCell>
        <mxCell id="KM8s7azPfyd2CxzV3lHb-7" style="edgeStyle=orthogonalEdgeStyle;rounded=0;orthogonalLoop=1;jettySize=auto;html=1;exitX=0;exitY=0.5;exitDx=0;exitDy=0;exitPerimeter=0;entryX=0;entryY=0.5;entryDx=0;entryDy=0;entryPerimeter=0;endArrow=none;startFill=0;" edge="1" parent="1" source="KM8s7azPfyd2CxzV3lHb-5" target="KM8s7azPfyd2CxzV3lHb-6">
          <mxGeometry relative="1" as="geometry">
            <Array as="points">
              <mxPoint x="200" y="110" />
              <mxPoint x="600" y="110" />
            </Array>
          </mxGeometry>
        </mxCell>
        <mxCell id="KM8s7azPfyd2CxzV3lHb-8" style="edgeStyle=orthogonalEdgeStyle;rounded=0;orthogonalLoop=1;jettySize=auto;html=1;exitX=1;exitY=0.5;exitDx=0;exitDy=0;exitPerimeter=0;entryX=1;entryY=0.5;entryDx=0;entryDy=0;entryPerimeter=0;endArrow=none;startFill=0;" edge="1" parent="1" source="KM8s7azPfyd2CxzV3lHb-5" target="KM8s7azPfyd2CxzV3lHb-3">
          <mxGeometry relative="1" as="geometry" />
        </mxCell>
        <mxCell id="KM8s7azPfyd2CxzV3lHb-9" style="edgeStyle=orthogonalEdgeStyle;rounded=0;orthogonalLoop=1;jettySize=auto;html=1;exitX=0;exitY=0.5;exitDx=0;exitDy=0;exitPerimeter=0;entryX=0;entryY=0.5;entryDx=0;entryDy=0;entryPerimeter=0;endArrow=none;startFill=0;" edge="1" parent="1" source="KM8s7azPfyd2CxzV3lHb-3" target="KM8s7azPfyd2CxzV3lHb-4">
          <mxGeometry relative="1" as="geometry">
            <Array as="points">
              <mxPoint x="200" y="480" />
              <mxPoint x="600" y="480" />
            </Array>
          </mxGeometry>
        </mxCell>
        <mxCell id="KM8s7azPfyd2CxzV3lHb-10" style="edgeStyle=orthogonalEdgeStyle;rounded=0;orthogonalLoop=1;jettySize=auto;html=1;exitX=1;exitY=0.5;exitDx=0;exitDy=0;exitPerimeter=0;entryX=1;entryY=0.5;entryDx=0;entryDy=0;entryPerimeter=0;endArrow=none;startFill=0;" edge="1" parent="1" source="KM8s7azPfyd2CxzV3lHb-4" target="KM8s7azPfyd2CxzV3lHb-6">
          <mxGeometry relative="1" as="geometry" />
        </mxCell>
        <mxCell id="KM8s7azPfyd2CxzV3lHb-11" value="&lt;font&gt;R&lt;sub&gt;i&lt;/sub&gt;&lt;/font&gt;" style="text;html=1;align=center;verticalAlign=middle;whiteSpace=wrap;rounded=0;fontSize=20;" vertex="1" parent="1">
          <mxGeometry x="120" y="210" width="60" height="30" as="geometry" />
        </mxCell>
        <mxCell id="KM8s7azPfyd2CxzV3lHb-12" value="&lt;font&gt;R&lt;sub&gt;o&lt;/sub&gt;&lt;/font&gt;" style="text;html=1;align=center;verticalAlign=middle;whiteSpace=wrap;rounded=0;fontSize=20;" vertex="1" parent="1">
          <mxGeometry x="630" y="210" width="60" height="30" as="geometry" />
        </mxCell>
        <mxCell id="KM8s7azPfyd2CxzV3lHb-13" value="&lt;font&gt;E&lt;sub&gt;i&lt;/sub&gt;&lt;/font&gt;" style="text;html=1;align=center;verticalAlign=middle;whiteSpace=wrap;rounded=0;fontSize=20;" vertex="1" parent="1">
          <mxGeometry x="110" y="365" width="60" height="30" as="geometry" />
        </mxCell>
        <mxCell id="KM8s7azPfyd2CxzV3lHb-14" value="&lt;font&gt;E&lt;sub&gt;o&lt;/sub&gt;&lt;/font&gt;" style="text;html=1;align=center;verticalAlign=middle;whiteSpace=wrap;rounded=0;fontSize=20;" vertex="1" parent="1">
          <mxGeometry x="630" y="365" width="60" height="30" as="geometry" />
        </mxCell>
        <mxCell id="KM8s7azPfyd2CxzV3lHb-15" value="" style="endArrow=classic;html=1;rounded=0;curved=1;" edge="1" parent="1">
          <mxGeometry width="50" height="50" relative="1" as="geometry">
            <mxPoint x="320" y="80" as="sourcePoint" />
            <mxPoint x="490" y="80" as="targetPoint" />
            <Array as="points">
              <mxPoint x="400" y="50" />
            </Array>
          </mxGeometry>
        </mxCell>
        <mxCell id="KM8s7azPfyd2CxzV3lHb-16" value="&lt;font&gt;i&lt;sub&gt;o&lt;/sub&gt;&lt;/font&gt;" style="edgeLabel;html=1;align=center;verticalAlign=middle;resizable=0;points=[];fontSize=20;" vertex="1" connectable="0" parent="KM8s7azPfyd2CxzV3lHb-15">
          <mxGeometry x="0.0887" y="-13" relative="1" as="geometry">
            <mxPoint x="-8" y="-26" as="offset" />
          </mxGeometry>
        </mxCell>
      </root>
    </mxGraphModel>
  </diagram>
</mxfile>
